<?xml version="1.0" standalone="no"?>
<!DOCTYPE svg PUBLIC "-//W3C//DTD SVG 20010904//EN"
 "http://www.w3.org/TR/2001/REC-SVG-20010904/DTD/svg10.dtd">
<svg version="1.0" xmlns="http://www.w3.org/2000/svg"
 width="16.000000pt" height="16.000000pt" viewBox="0 0 16.000000 16.000000"
 preserveAspectRatio="xMidYMid meet">
<metadata>
Created by potrace 1.11, written by Peter Selinger 2001-2013
</metadata>
<g transform="translate(0.000000,16.000000) scale(0.004000,-0.004000)"
fill="#000000" stroke="none">
<path d="M0 2000 l0 -2000 2000 0 2000 0 0 2000 0 2000 -2000 0 -2000 0 0
-2000z m3288 1278 c17 -17 17 -2549 0 -2566 -17 -17 -2549 -17 -2566 0 -17 17
-17 2549 0 2566 17 17 2549 17 2566 0z"/>
<path d="M800 1995 l0 -1205 1205 0 1205 0 0 1205 0 1205 -1205 0 -1205 0 0
-1205z m717 532 c39 -21 53 -44 53 -92 0 -26 -7 -43 -24 -58 l-24 -21 28 -18
c39 -23 49 -74 24 -125 -26 -52 -73 -64 -229 -61 l-120 3 -3 185 c-1 101 0
191 3 198 8 22 247 12 292 -11z m605 -12 c110 -77 117 -232 15 -322 -78 -68
-196 -71 -288 -7 -101 70 -105 243 -7 317 52 40 77 47 160 44 67 -2 82 -6 120
-32z m499 -35 c28 -38 55 -70 59 -70 5 0 6 19 4 43 -2 23 -2 55 2 70 6 27 8
28 62 25 l57 -3 0 -195 0 -195 -65 -3 -65 -3 -63 91 c-35 49 -64 90 -66 90 -1
0 -2 -30 -1 -67 4 -111 2 -114 -64 -111 l-56 3 -3 185 c-1 101 0 190 2 197 4
9 28 13 76 13 l70 0 51 -70z m-1012 -840 c39 -105 71 -193 71 -195 0 -3 -34
-5 -76 -5 -74 0 -75 0 -85 30 -10 29 -14 30 -69 30 -55 0 -58 -2 -70 -30 -12
-30 -14 -30 -87 -30 -56 0 -74 3 -71 13 3 6 33 94 68 195 l64 182 92 0 92 0
71 -190z m538 170 c98 -44 113 -179 27 -235 -15 -10 -54 -20 -90 -23 l-63 -5
-3 -51 -3 -51 -70 0 -70 0 -1 179 c-1 99 0 186 3 193 9 22 218 17 270 -7z
m560 0 c51 -23 83 -70 83 -123 0 -81 -49 -127 -145 -136 l-60 -6 -3 -52 -3
-53 -70 0 -69 0 0 195 0 195 113 0 c89 0 121 -4 154 -20z"/>
<path d="M1360 2430 c0 -25 4 -30 24 -30 34 0 56 10 56 25 0 18 -16 27 -51 31
-26 3 -29 1 -29 -26z"/>
<path d="M1360 2270 c0 -26 3 -30 29 -30 16 0 34 7 41 15 18 21 -4 45 -41 45
-26 0 -29 -4 -29 -30z"/>
<path d="M1930 2410 c-33 -33 -30 -95 7 -129 21 -18 34 -22 62 -17 20 3 44 15
54 27 25 31 22 91 -6 117 -30 29 -89 30 -117 2z"/>
<path d="M1436 1663 c-4 -16 -9 -36 -12 -45 -4 -15 1 -18 26 -18 33 0 34 1 9
68 -11 29 -15 28 -23 -5z"/>
<path d="M2020 1685 c0 -32 2 -35 29 -35 21 0 32 6 36 20 9 27 -11 50 -41 50
-21 0 -24 -5 -24 -35z"/>
<path d="M2580 1686 c0 -33 2 -36 30 -36 55 0 51 62 -4 68 -24 3 -26 0 -26
-32z"/>
</g>
</svg>
